<?xml version="1.0" encoding="UTF-8"?>
<svg id="_Слой_1" data-name="Слой 1" xmlns="http://www.w3.org/2000/svg" viewBox="0 0 1000 1000">
  <g>
    <rect class="cls-1" x="458.53" y="444.17" width="41.63" height="10.68" transform="translate(-177.46 470.61) rotate(-45)"/>
    <polygon class="cls-1" points="474.01 468.33 490.11 475.13 480.32 457.8 490.35 454.71 490.84 435.52 463.5 457.8 470.52 462.35 474.01 468.33"/>
    <polygon class="cls-1" points="414.81 475.13 427.25 465.69 431.37 451.97 439.25 455.06 439.25 435.52 401.89 466.72 395.66 475.13 414.81 475.13"/>
    <polygon class="cls-1" points="534.39 475.13 490.28 431.02 482.73 438.57 519.29 475.13 534.39 475.13"/>
    <polygon class="cls-1" points="403.01 475.13 439.01 439.13 475.01 475.13 490.11 475.13 446.56 431.57 439.01 424.02 431.45 431.57 387.9 475.13 403.01 475.13"/>
  </g>
</svg>
