<svg width="148" height="52" viewBox="0 0 148 52" fill="none" xmlns="http://www.w3.org/2000/svg">
<path d="M103.282 7.0191L73.8453 36.456L81.3972 44.0079L110.834 14.571L103.282 7.0191Z" fill="white"/>
<path d="M87.01 44.33L103.11 51.13L93.32 33.8L103.35 30.71L103.84 11.52L76.5 33.8L83.52 38.35L87.01 44.33Z" fill="white"/>
<path d="M27.81 51.13L40.25 41.69L44.37 27.97L52.25 31.06V11.52L14.89 42.72L8.66003 51.13H27.81Z" fill="white"/>
<path d="M147.39 51.13L103.28 7.01999L95.73 14.57L132.29 51.13H147.39Z" fill="white"/>
<path d="M16 51.13L52 15.13L88 51.13H103.11L59.56 7.57001L52 0.019989L44.45 7.57001L0.900024 51.13H16Z" fill="white"/>
</svg>
